<svg xmlns="http://www.w3.org/2000/svg" viewBox="0 0 269.95 274.47"><defs><style>.cls-1{fill:none;stroke:#282828;}.cls-1,.cls-4{stroke-miterlimit:10;}.cls-2{fill:#323232;}.cls-3{fill:#fff;}.cls-4{fill:#e5b997;stroke:#5e5e5e;}</style></defs><title>logotian-goldenratioputih</title><g id="Layer_2" data-name="Layer 2"><path class="cls-1" d="M866.41,286.75" transform="translate(-395.43 -421.46)"/><path class="cls-1" d="M179.83,286.75" transform="translate(-395.43 -421.46)"/><path class="cls-1" d="M866.4,211.75" transform="translate(-395.43 -421.46)"/><path class="cls-2" d="M571.33,695.93V679.71" transform="translate(-395.43 -421.46)"/><path class="cls-3" d="M640.08,543.83c-.39-.32-.78-.63-1.18-.93h0c.4-.3.79-.61,1.18-.92a67.7,67.7,0,0,0-42.41-120.51H395.43V664.34H597.67a67.72,67.72,0,0,0,42.41-120.51ZM530,449.45h12.87a67.75,67.75,0,0,0,0,79.44H530Zm-106.53,0h59.23l-59.22,59.22h0Zm59.33,186.9H423.42v-57h0l59.32,57ZM502,616h0L440.52,556.9H502Zm0-87.06H442.8l15.58-15.57H502Zm0-43.58H486.38L502,469.75h0ZM634.41,611.75a39.69,39.69,0,0,1-36.74,24.6H569.18a7.06,7.06,0,0,1-1.48-.19c-21-.76-37.78-15.7-37.78-36.86,0-2.17,0-5.33,0-5.33V556.9h67.72a39.76,39.76,0,0,1,36.74,54.86ZM612.09,526.2a40.08,40.08,0,0,1-7.9,2.17c-.61.09-1.21.18-1.83.25a38.23,38.23,0,0,1-4.69.28h-.2l-.88,0c-.68,0-1.35,0-2-.1A39.9,39.9,0,0,1,558,491.19c0-.67,0-1.34,0-2v-.67c0-.2,0-.4,0-.59s0-.21,0-.31a5.68,5.68,0,0,1,0-.59,4.15,4.15,0,0,1,0-.49c0-.2,0-.41,0-.61a1.49,1.49,0,0,1,0-.21c0-.25,0-.5.07-.75s.06-.57.1-.86.07-.51.11-.77.06-.44.1-.65.07-.47.12-.7h0c.06-.31.12-.63.19-.94a39.18,39.18,0,0,1,3.5-9.93l.45-.85c.44-.81.9-1.59,1.39-2.36.14-.21.27-.42.41-.62s.25-.39.39-.58.22-.33.34-.49l0-.06c.17-.24.35-.49.53-.72s.38-.51.58-.76.39-.5.6-.74.41-.49.62-.73.41-.48.63-.72.43-.47.65-.69l.66-.69.69-.66c.21-.21.42-.4.64-.6a.69.69,0,0,1,.13-.11c.21-.2.42-.39.64-.57s.45-.4.68-.58l.11-.1L573,458l.3-.23c.19-.16.39-.3.59-.45l.77-.56.67-.47.21-.14.58-.39.27-.16.48-.31.35-.21.43-.26.38-.21c.21-.13.43-.25.64-.36l.09,0c.21-.12.43-.23.65-.34l.25-.13.77-.39h0c.19-.1.4-.19.6-.28l.47-.22.25-.1.69-.3.13,0c.21-.09.42-.18.63-.25l.74-.29.06,0,.68-.24.67-.22.71-.23c.4-.12.8-.24,1.21-.34q.29-.09.57-.15.63-.17,1.26-.3l.7-.15.95-.18c.41-.07.83-.14,1.24-.19l.7-.1c1-.12,1.93-.2,2.91-.25l.74,0c.43,0,.87,0,1.31,0a39.73,39.73,0,0,1,14.42,76.75Z" transform="translate(-395.43 -421.46)"/><path class="cls-4" d="M825.33,426.15" transform="translate(-395.43 -421.46)"/><path class="cls-4" d="M765.66,426.15" transform="translate(-395.43 -421.46)"/><path class="cls-4" d="M497.8,695.93" transform="translate(-395.43 -421.46)"/><path class="cls-4" d="M438.13,695.93" transform="translate(-395.43 -421.46)"/></g></svg>